<mxfile host="app.diagrams.net" modified="2021-02-04T12:59:35.300Z" agent="5.0 (Windows NT 10.0; Win64; x64) AppleWebKit/537.36 (KHTML, like Gecko) Chrome/88.0.4324.96 Safari/537.36 Edg/88.0.705.56" etag="EobgGMtLwBrCnOv1zaLd" version="14.2.9" type="github">
  <diagram id="GLFHSqSfIn8HMDW92Phs" name="全体の流れ">
    <mxGraphModel dx="942" dy="675" grid="1" gridSize="10" guides="1" tooltips="1" connect="1" arrows="1" fold="1" page="1" pageScale="1" pageWidth="827" pageHeight="1169" math="0" shadow="0">
      <root>
        <mxCell id="0" />
        <mxCell id="1" parent="0" />
        <mxCell id="FZdfyzK-RYdTEiAnIktn-5" style="edgeStyle=orthogonalEdgeStyle;rounded=0;orthogonalLoop=1;jettySize=auto;html=1;exitX=0.5;exitY=1;exitDx=0;exitDy=0;exitPerimeter=0;entryX=0.5;entryY=0;entryDx=0;entryDy=0;" edge="1" parent="1" source="FZdfyzK-RYdTEiAnIktn-1" target="FZdfyzK-RYdTEiAnIktn-2">
          <mxGeometry relative="1" as="geometry" />
        </mxCell>
        <mxCell id="FZdfyzK-RYdTEiAnIktn-1" value="起動" style="strokeWidth=2;html=1;shape=mxgraph.flowchart.start_1;whiteSpace=wrap;fontFamily=メイリオ;" vertex="1" parent="1">
          <mxGeometry x="379" y="10" width="70" height="40" as="geometry" />
        </mxCell>
        <mxCell id="FZdfyzK-RYdTEiAnIktn-8" style="edgeStyle=orthogonalEdgeStyle;rounded=0;orthogonalLoop=1;jettySize=auto;html=1;exitX=0.5;exitY=1;exitDx=0;exitDy=0;entryX=0.5;entryY=0;entryDx=0;entryDy=0;" edge="1" parent="1" source="FZdfyzK-RYdTEiAnIktn-2" target="FZdfyzK-RYdTEiAnIktn-7">
          <mxGeometry relative="1" as="geometry" />
        </mxCell>
        <mxCell id="FZdfyzK-RYdTEiAnIktn-2" value="タイトル" style="rounded=1;whiteSpace=wrap;html=1;absoluteArcSize=1;arcSize=14;strokeWidth=2;" vertex="1" parent="1">
          <mxGeometry x="364" y="70" width="100" height="30" as="geometry" />
        </mxCell>
        <mxCell id="FZdfyzK-RYdTEiAnIktn-10" style="edgeStyle=orthogonalEdgeStyle;rounded=0;orthogonalLoop=1;jettySize=auto;html=1;exitX=0.5;exitY=1;exitDx=0;exitDy=0;entryX=0.5;entryY=0;entryDx=0;entryDy=0;fillColor=#dae8fc;strokeColor=#6c8ebf;" edge="1" parent="1" source="FZdfyzK-RYdTEiAnIktn-7" target="FZdfyzK-RYdTEiAnIktn-9">
          <mxGeometry relative="1" as="geometry" />
        </mxCell>
        <mxCell id="FZdfyzK-RYdTEiAnIktn-7" value="プレイヤー1が&lt;br&gt;サイコロで進む" style="rounded=1;whiteSpace=wrap;html=1;absoluteArcSize=1;arcSize=14;strokeWidth=2;fillColor=#dae8fc;strokeColor=#6c8ebf;" vertex="1" parent="1">
          <mxGeometry x="354" y="150" width="120" height="70" as="geometry" />
        </mxCell>
        <mxCell id="FZdfyzK-RYdTEiAnIktn-15" style="edgeStyle=orthogonalEdgeStyle;rounded=0;orthogonalLoop=1;jettySize=auto;html=1;exitX=0.5;exitY=1;exitDx=0;exitDy=0;entryX=0.5;entryY=0;entryDx=0;entryDy=0;" edge="1" parent="1" source="FZdfyzK-RYdTEiAnIktn-9" target="FZdfyzK-RYdTEiAnIktn-13">
          <mxGeometry relative="1" as="geometry" />
        </mxCell>
        <mxCell id="FZdfyzK-RYdTEiAnIktn-9" value="イベント発生" style="rounded=1;whiteSpace=wrap;html=1;absoluteArcSize=1;arcSize=14;strokeWidth=2;fillColor=#dae8fc;strokeColor=#6c8ebf;" vertex="1" parent="1">
          <mxGeometry x="364" y="240" width="100" height="40" as="geometry" />
        </mxCell>
        <mxCell id="FZdfyzK-RYdTEiAnIktn-18" value="yes" style="edgeStyle=orthogonalEdgeStyle;rounded=0;orthogonalLoop=1;jettySize=auto;html=1;exitX=0.5;exitY=1;exitDx=0;exitDy=0;exitPerimeter=0;entryX=0.5;entryY=0;entryDx=0;entryDy=0;entryPerimeter=0;" edge="1" parent="1" source="FZdfyzK-RYdTEiAnIktn-11" target="FZdfyzK-RYdTEiAnIktn-17">
          <mxGeometry relative="1" as="geometry" />
        </mxCell>
        <mxCell id="FZdfyzK-RYdTEiAnIktn-20" value="no" style="edgeStyle=orthogonalEdgeStyle;rounded=0;orthogonalLoop=1;jettySize=auto;html=1;exitX=0;exitY=0.5;exitDx=0;exitDy=0;exitPerimeter=0;" edge="1" parent="1" source="FZdfyzK-RYdTEiAnIktn-11" target="FZdfyzK-RYdTEiAnIktn-19">
          <mxGeometry x="-0.869" relative="1" as="geometry">
            <Array as="points">
              <mxPoint x="240" y="480" />
            </Array>
            <mxPoint as="offset" />
          </mxGeometry>
        </mxCell>
        <mxCell id="FZdfyzK-RYdTEiAnIktn-11" value="ボスに到達" style="strokeWidth=2;html=1;shape=mxgraph.flowchart.decision;whiteSpace=wrap;" vertex="1" parent="1">
          <mxGeometry x="354" y="450" width="121" height="60" as="geometry" />
        </mxCell>
        <mxCell id="FZdfyzK-RYdTEiAnIktn-12" style="edgeStyle=orthogonalEdgeStyle;rounded=0;orthogonalLoop=1;jettySize=auto;html=1;exitX=0.5;exitY=1;exitDx=0;exitDy=0;entryX=0.5;entryY=0;entryDx=0;entryDy=0;fillColor=#d5e8d4;strokeColor=#82b366;" edge="1" parent="1" source="FZdfyzK-RYdTEiAnIktn-13" target="FZdfyzK-RYdTEiAnIktn-14">
          <mxGeometry relative="1" as="geometry" />
        </mxCell>
        <mxCell id="FZdfyzK-RYdTEiAnIktn-13" value="プレイヤー2が&lt;br&gt;サイコロで進む" style="rounded=1;whiteSpace=wrap;html=1;absoluteArcSize=1;arcSize=14;strokeWidth=2;fillColor=#d5e8d4;strokeColor=#82b366;" vertex="1" parent="1">
          <mxGeometry x="354" y="300" width="120" height="70" as="geometry" />
        </mxCell>
        <mxCell id="FZdfyzK-RYdTEiAnIktn-16" style="edgeStyle=orthogonalEdgeStyle;rounded=0;orthogonalLoop=1;jettySize=auto;html=1;exitX=0.5;exitY=1;exitDx=0;exitDy=0;entryX=0.5;entryY=0;entryDx=0;entryDy=0;entryPerimeter=0;" edge="1" parent="1" source="FZdfyzK-RYdTEiAnIktn-14" target="FZdfyzK-RYdTEiAnIktn-11">
          <mxGeometry relative="1" as="geometry" />
        </mxCell>
        <mxCell id="FZdfyzK-RYdTEiAnIktn-14" value="イベント発生" style="rounded=1;whiteSpace=wrap;html=1;absoluteArcSize=1;arcSize=14;strokeWidth=2;fillColor=#d5e8d4;strokeColor=#82b366;" vertex="1" parent="1">
          <mxGeometry x="364" y="390" width="100" height="40" as="geometry" />
        </mxCell>
        <mxCell id="FZdfyzK-RYdTEiAnIktn-17" value="終了" style="strokeWidth=2;html=1;shape=mxgraph.flowchart.start_1;whiteSpace=wrap;fontFamily=メイリオ;" vertex="1" parent="1">
          <mxGeometry x="379.5" y="545" width="70" height="40" as="geometry" />
        </mxCell>
        <mxCell id="FZdfyzK-RYdTEiAnIktn-24" value="yes" style="edgeStyle=orthogonalEdgeStyle;rounded=0;orthogonalLoop=1;jettySize=auto;html=1;exitX=1;exitY=0.5;exitDx=0;exitDy=0;exitPerimeter=0;" edge="1" parent="1" source="FZdfyzK-RYdTEiAnIktn-19">
          <mxGeometry relative="1" as="geometry">
            <mxPoint x="350" y="185" as="targetPoint" />
          </mxGeometry>
        </mxCell>
        <mxCell id="FZdfyzK-RYdTEiAnIktn-27" value="no" style="edgeStyle=orthogonalEdgeStyle;rounded=0;orthogonalLoop=1;jettySize=auto;html=1;exitX=0;exitY=0.5;exitDx=0;exitDy=0;exitPerimeter=0;entryX=0.5;entryY=0;entryDx=0;entryDy=0;entryPerimeter=0;" edge="1" parent="1" source="FZdfyzK-RYdTEiAnIktn-19" target="FZdfyzK-RYdTEiAnIktn-25">
          <mxGeometry relative="1" as="geometry" />
        </mxCell>
        <mxCell id="FZdfyzK-RYdTEiAnIktn-19" value="プレイヤー1が生存" style="strokeWidth=2;html=1;shape=mxgraph.flowchart.decision;whiteSpace=wrap;" vertex="1" parent="1">
          <mxGeometry x="170" y="142.5" width="140" height="85" as="geometry" />
        </mxCell>
        <mxCell id="FZdfyzK-RYdTEiAnIktn-28" value="yes" style="edgeStyle=orthogonalEdgeStyle;rounded=0;orthogonalLoop=1;jettySize=auto;html=1;exitX=1;exitY=0.5;exitDx=0;exitDy=0;exitPerimeter=0;" edge="1" parent="1" source="FZdfyzK-RYdTEiAnIktn-25">
          <mxGeometry relative="1" as="geometry">
            <mxPoint x="350" y="335" as="targetPoint" />
          </mxGeometry>
        </mxCell>
        <mxCell id="FZdfyzK-RYdTEiAnIktn-29" value="no" style="edgeStyle=orthogonalEdgeStyle;rounded=0;orthogonalLoop=1;jettySize=auto;html=1;exitX=0.5;exitY=1;exitDx=0;exitDy=0;exitPerimeter=0;entryX=0;entryY=0.5;entryDx=0;entryDy=0;entryPerimeter=0;" edge="1" parent="1" source="FZdfyzK-RYdTEiAnIktn-25" target="FZdfyzK-RYdTEiAnIktn-17">
          <mxGeometry x="-0.8513" relative="1" as="geometry">
            <mxPoint y="1" as="offset" />
          </mxGeometry>
        </mxCell>
        <mxCell id="FZdfyzK-RYdTEiAnIktn-25" value="プレイヤー2が生存" style="strokeWidth=2;html=1;shape=mxgraph.flowchart.decision;whiteSpace=wrap;" vertex="1" parent="1">
          <mxGeometry x="60" y="292.5" width="140" height="85" as="geometry" />
        </mxCell>
      </root>
    </mxGraphModel>
  </diagram>
</mxfile>
